<?xml version="1.0" encoding="utf-8"?>
<!-- Generator: Adobe Illustrator 21.0.0, SVG Export Plug-In . SVG Version: 6.00 Build 0)  -->
<svg version="1.1" xmlns="http://www.w3.org/2000/svg" xmlns:xlink="http://www.w3.org/1999/xlink" x="0px" y="0px"
	 viewBox="0 0 32 32" style="enable-background:new 0 0 32 32;" xml:space="preserve">
<style type="text/css">
	.st0{fill:#808083;}
	.st1{fill:#F1F2F2;}
	.st2{fill:#FFFFFF;}
</style>
<g id="background">
</g>
<g id="objects">
	<g>
		<path class="st0" d="M29.8,32H2.2C1,32,0,31,0,29.8V2.2C0,1,1,0,2.2,0h27.5C31,0,32,1,32,2.2v27.5C32,31,31,32,29.8,32z"/>
		<path id="group_1_" class="st1" d="M23.2,13.9h-0.9c-0.6,0-1.1-0.5-1.1-1c0-2.9-2.4-5.2-5.3-5.2h-2.7c-3,0-5.4,2.4-5.4,5.3v5.9
			c0,2.9,2.4,5.3,5.4,5.3h5.8c3,0,5.4-2.4,5.4-5.3v-3.8C24.3,14.6,23.8,13.9,23.2,13.9z M13.2,11.9H16c0.8,0,1.4,0.6,1.4,1.4
			c0,0.8-0.6,1.4-1.4,1.4h-2.8c-0.8,0-1.4-0.6-1.4-1.4C11.9,12.5,12.5,11.9,13.2,11.9z M18.8,20.1h-5.5c-0.8,0-1.4-0.6-1.4-1.4
			c0-0.8,0.6-1.4,1.4-1.4h5.5c0.8,0,1.4,0.6,1.4,1.4C20.1,19.5,19.5,20.1,18.8,20.1z"/>
	</g>
</g>
<g id="designed_by_freepik">
</g>
</svg>
