<?xml version="1.0" encoding="utf-8"?>
<!-- Generator: Adobe Illustrator 21.0.0, SVG Export Plug-In . SVG Version: 6.00 Build 0)  -->
<svg version="1.1" xmlns="http://www.w3.org/2000/svg" xmlns:xlink="http://www.w3.org/1999/xlink" x="0px" y="0px"
	 viewBox="0 0 32 32" style="enable-background:new 0 0 32 32;" xml:space="preserve">
<style type="text/css">
	.st0{fill:#808083;}
	.st1{fill:#F1F2F2;}
	.st2{fill:#FFFFFF;}
</style>
<g id="background">
</g>
<g id="objects">
	<g>
		<path class="st0" d="M29.8,32H2.2C1,32,0,31,0,29.8V2.2C0,1,1,0,2.2,0h27.5C31,0,32,1,32,2.2v27.5C32,31,31,32,29.8,32z"/>
		<path class="st1" d="M20.1,16h-2.7v9.5h-3.9V16h-1.9v-3.3h1.9v-2.2c0-1.5,0.7-4,4-4l2.9,0v3.2h-2.1c-0.3,0-0.8,0.2-0.8,0.9v2h3
			L20.1,16z M20.1,16"/>
	</g>
</g>
<g id="designed_by_freepik">
</g>
</svg>
