<?xml version="1.0" encoding="utf-8"?>
<!-- Generator: Adobe Illustrator 21.0.0, SVG Export Plug-In . SVG Version: 6.00 Build 0)  -->
<svg version="1.1" xmlns="http://www.w3.org/2000/svg" xmlns:xlink="http://www.w3.org/1999/xlink" x="0px" y="0px"
	 viewBox="0 0 32 32" style="enable-background:new 0 0 32 32;" xml:space="preserve">
<style type="text/css">
	.st0{fill:#808083;}
	.st1{fill:#F1F2F2;}
	.st2{fill:#FFFFFF;}
</style>
<g id="background">
</g>
<g id="objects">
	<g>
		<path class="st0" d="M29.8,32H2.2C1,32,0,31,0,29.8V2.2C0,1,1,0,2.2,0h27.5C31,0,32,1,32,2.2v27.5C32,31,31,32,29.8,32z"/>
		<g>
			<path class="st2" d="M16,6.2c1.3,0,2.6,0,3.9,0.1c1.1,0,2.2,0.2,3.2,0.8c1.3,0.8,2.1,2,2.3,3.4c0.2,0.9,0.2,1.8,0.2,2.7
				c0,1.9,0,3.9,0,5.8c0,1,0,2-0.4,3c-0.7,1.9-2,3.1-3.9,3.4c-0.9,0.2-1.8,0.2-2.7,0.2c-1.9,0-3.9,0-5.8,0c-1,0-2,0-3-0.4
				c-1.9-0.7-3.1-2-3.4-3.9c-0.2-0.9-0.2-1.8-0.2-2.7c0-1.9,0-3.9,0-5.8c0-1,0-2,0.4-3c0.7-1.9,2-3.1,3.9-3.4
				c0.9-0.2,1.8-0.2,2.7-0.2C14.2,6.2,15.1,6.2,16,6.2C16,6.2,16,6.2,16,6.2z M24,15.9C24,15.9,24,15.9,24,15.9c0-0.8,0-1.5,0-2.3
				c0-0.7,0-1.5-0.1-2.2c-0.2-1.7-1.2-2.8-2.8-3.1C20.2,8,19.4,8,18.5,8c-1.7,0-3.3,0-5,0c-0.8,0-1.7,0-2.5,0.2
				c-1.4,0.2-2.4,1-2.8,2.4c-0.1,0.4-0.2,0.9-0.2,1.4C8,13.8,8,15.5,8,17.3c0,1.1,0,2.3,0.1,3.4c0.1,1.7,1.2,2.8,2.8,3.1
				c0.9,0.2,1.7,0.2,2.6,0.2c1.6,0,3.3,0,4.9,0c0.7,0,1.5,0,2.2-0.1c0.7-0.1,1.3-0.3,1.9-0.7c0.9-0.7,1.3-1.7,1.3-2.8
				C24,18.8,24,17.3,24,15.9z"/>
			<path class="st2" d="M21,16c0,2.8-2.2,5-5,5c-2.8,0-5-2.2-5-5.1c0-2.8,2.3-5,5.1-5C18.8,11,21,13.2,21,16z M16,19.3
				c1.8,0,3.3-1.5,3.3-3.3c0-1.8-1.5-3.3-3.3-3.3c-1.8,0-3.3,1.5-3.3,3.3C12.7,17.8,14.2,19.3,16,19.3z"/>
			<path class="st2" d="M22.4,10.8c0,0.7-0.5,1.2-1.2,1.2c-0.7,0-1.2-0.5-1.2-1.2c0-0.6,0.5-1.2,1.2-1.2
				C21.9,9.6,22.4,10.1,22.4,10.8z"/>
		</g>
	</g>
</g>
<g id="designed_by_freepik">
</g>
</svg>
