<?xml version="1.0" encoding="utf-8"?>
<!-- Generator: Adobe Illustrator 21.0.0, SVG Export Plug-In . SVG Version: 6.00 Build 0)  -->
<svg version="1.1" xmlns="http://www.w3.org/2000/svg" xmlns:xlink="http://www.w3.org/1999/xlink" x="0px" y="0px"
	 viewBox="0 0 32 32" style="enable-background:new 0 0 32 32;" xml:space="preserve">
<style type="text/css">
	.st0{fill:#808083;}
	.st1{fill:#F1F2F2;}
	.st2{fill:#FFFFFF;}
</style>
<g id="background">
</g>
<g id="objects">
	<g>
		<path class="st0" d="M29.8,32H2.2C1,32,0,31,0,29.8V2.2C0,1,1,0,2.2,0h27.5C31,0,32,1,32,2.2v27.5C32,31,31,32,29.8,32z"/>
		<g>
			<path class="st1" d="M17,10.5V6.3h-2.7c-0.1,0.2-0.1,0.3-0.1,0.5c0,0.1-0.1,0.2-0.1,0.2c-0.3,1.6-1.1,2.7-2.5,3.3
				c-0.4,0.2-0.8,0.2-1.2,0.2v3.4h2c0,4.8,0,7.3,0,7.4v0.3c0.3,2.1,1.3,3.3,3.3,3.8c0.8,0.2,1.6,0.3,2.5,0.3c1.1,0,2.2-0.2,3.2-0.6
				v-4c-0.6,0.2-1.2,0.3-1.7,0.5c-1,0.3-1.8,0.1-2.4-0.5c-0.1-0.1-0.2-0.2-0.2-0.3c-0.1-0.5-0.2-1-0.2-1.5v-5.3h4.3v-3.4H17z
				 M17,10.5"/>
		</g>
	</g>
</g>
<g id="designed_by_freepik">
</g>
</svg>
